<svg id="Layer_1" data-name="Layer 1" xmlns="http://www.w3.org/2000/svg" viewBox="0 0 441.82 350.59"><defs><style>.cls-1{fill:#f2d4c9;}.cls-2{fill:#565656;}</style></defs><circle class="cls-1" cx="220.91" cy="175.39" r="131.04"/><path class="cls-2" d="M250.59,53c-.1,1.14,4.26,1.39,5.37,1.11,3.27-.8,4.09,1.72,4.36,5.76,1.21,6.88,10.24,8.6,7.56,17.21-.93,4-10.06,5.1-7.56,10.13,1,2.14,3.94,3.23,3.43,5.81-.91,3.66-7.18,7.15-10.85,7.38-8.52,1-14-3.33-17,6.17-.05.13-1.72,2.37-1.8,2.49-4.58,7.08-8.14,14.66-8.87,23.3,0,.1,0,.19,0,.29,0,10-3.72,19.67-4.25,30a.47.47,0,0,1-.06.19c-2.08,5.43-1.49,31.56-1,36.36.37,3.54.09,2.1.3,6.15.23,4.68,3.78,17.11,7.46,24.15a1.66,1.66,0,0,0,3.12-.79c1-13.44,7-28.4,11.47-40.7,1.14-3.17,2.43-4.44,2.76-8.11.63-7.1-1.47-14.54-4.05-21.88a1.72,1.72,0,0,1,0-.24c-1.85-7.44-2.47-15.37-.42-22.82.75-3,4.11-4.8,4.24-4.82,6.86-1.11,7.65,11.76,8.38,16.28,1.1,5.52.29,10-1.88,15.16-1.16,2.75-1.22,4.76-3,7.79a24.16,24.16,0,0,0-.15,3.08c1,6.36,5.58-2.93,6.66-5.53l.13-.26c5.16-8,10.4-17.12,18.24-22.65,12.89-9.09,27.9-14.33,40.26-23.74,2.09-1.59,2.45-2.46,5.71-1.48,3.3.6,1.49,4.36,1.38,4.56-10,19-30.7,36.07-53.2,38.52-8.14.88-19,23.23-19.07,23.36-6.27,9.42-11.39,21.58-11.68,33,0,1.78,1.51,1.49,3.15.8,4-1.7,5.79-4.93,8.67-7,.32-.23,13.58-9.4,12.74-8.84-3.68,2.47,7.94-7,16.15-2.32a1.48,1.48,0,0,1,.48,1.11c-3.43,11.6-18.56,29.47-29.84,34.42l-.19.1c-13.42,8.46-13.56,4.16-7.86,13.88.08.14,2.29,3.73,2.32,3.89,1.47,6.58,7.07,7.7,8.94,14.25l0,.1c7.51,19,8,39.92,7.95,59.94a1.24,1.24,0,0,0,0,.33c.59,2.73-3.69,5.32-4.37,2.69-2.18-8.4,2.67-19.73.33-29.24-2-8.29-5-43.57-18-37.29-16.88,5.7-26.23-.48-31.52-16.66a1.62,1.62,0,0,0-.17-.35,5.14,5.14,0,0,1,5.35-7.8c5.21,1,10.32,1.65,15.06,4a10.45,10.45,0,0,1,1,.44,1.66,1.66,0,0,0,2.21-2.22c-2.81-6-8.23-11.09-10.65-17.45-6.28-17.59-.7-23.94-16.69-36.1-.07-.05-5.52-2.42-5.67-2.42-8.06,0-24.86-3.83-24.91-3.84-10.59-2.21-13.09-3.39-20.78-9.44-7.2-5.41-15.47-8.49-15.48-18.39,0-.35.43-.88.57-1.17,4.11-8.69,46.1,16,51.27,21.46,20.2,21.24-8.16-29.45,8-41.89,2.32-2.12,5.48-1.5,5.7,1.87.12,7.76,5.05,14,6,21.33a1.22,1.22,0,0,1,0,.27c-.17,6,2.35,11.94,2.05,17.8a2.33,2.33,0,0,1-.06.35c-.78,2.89-2.43,8.95-2.54,9.15-1.93,3.67,4,5.36,5.5,8.17,3.32,6.34,2-16,3.19-23,2-11.54,7-23.44,6.08-36.81a1.06,1.06,0,0,1,0-.35c.77-2.94,1.3-8,2.06-10.9,3.17-9.85-3.13-5.62-7.22-12.25-5.77-10.17-22.95.23-30.71-7-6.8-4.8-6.21-14.61-1.42-20.59,3.17-4.48-9.21-4.19-4.05-13.92a2.55,2.55,0,0,0,.13-.29c3.64-11.65-4.74-24.36,18.82-20.82,3.75.56,1.64-5.67,1.71-7.76-.49-5.39,7.29-7.37,9-12.13,1.9-3.84,4.15-5.28,7.7-7.51,8.33-5.16,7.12,9.64,11.26,1.69,3.76-6.08,18.17-1.88,18.19,4.65a1.51,1.51,0,0,0,.06.48C249.6,37.36,251.57,41.09,250.59,53ZM232.8,22.88a5.29,5.29,0,0,0-1.43.64c-6.3,5.52,1,8.93-2.26,11.56-2.66,2.12-5.31-3.61-8.27-7.66-1.49-2-2.46-4.37-4.64-2.87-21.16,14.54-2.35,52,2.56,54.66a.48.48,0,0,1,.09.11c1,1.12,1.48,7.32,3.33,4,2.45-7.59.89-16.36,5.08-23.39,2.28-3.22,5.19,2,3.64,4.26a29.62,29.62,0,0,0-1.52,9.6,1.68,1.68,0,0,0,2.84,1.09c11.18-8.7,16.51-34.82,14.64-36.28C239.14,32.66,244.59,17.48,232.8,22.88ZM208.28,97.49a1.66,1.66,0,0,0,.92,2.55c7.51,2.18,10.32,4.71,9.18-6.61-.83-8.29-16-15.16-20.27-22.2-.11-.18,0-.42,0-.61,1.21-4.54,4.46-1,7.25,1.43,1.18,1,2.09-.11,2.73-1.53,1.66-3.72-2.81-7.57-5.26-12.55-3-6-7-7.48-11.72-7.84-12.4-1-2.18,11.94-6.32,16.78-6.55,7.66,8.44,18.74,16.26,21.44l.16.1C205.12,90.54,211.13,93.38,208.28,97.49Zm48-36.53c-5.79-5.94-28,23.22-23.58,27.43,2,1.88,4.12-1.22,6-2.35,7.14-4.56,16-4.64,23.23-9.09,2.79-1.28,2.54-2.5.76-5.65C260.32,67.23,257.27,62,256.24,61ZM237.45,232.27a2.45,2.45,0,0,1,.19.74c.16,1.58,1.66,2.15,3.21,1.81,11.91-2.62,27.9-18.06,32-28.39.69-1.76-.53-3.63-2.37-3.21-11.65,2.67-29.85,15.6-33.19,27.19A2.68,2.68,0,0,0,237.45,232.27Zm-50.31-50.14c1.37-.11-.27-1.89-1.3-2.8-11.11-9.75-19.27-13.09-28.32-17.11-4.78-2.13-10.9-5.39-16.44-5.39-6.44.79,16.65,16.36,18.94,18l.19.13C165,177.62,181.57,182.6,187.14,182.13Zm86.05-26.57c6.86.61,28-12,34.54-19.05,20.26-21.78-3.75-6-19.8,3.51-2.89,1.72-14.72,7.76-15.81,12.78C271.83,154.12,271.84,155.44,273.19,155.56Zm-67.72,15.81c0-.11-6.2-39.3-11.93-31.51C189,146.09,203,203.8,205.47,171.37Zm21.31,92.51c21.86-3.27,8.56-11.4-.68-16.16,0,0-8.57-2.43-8.62-2.44C197.56,240,216.05,266.39,226.78,263.88ZM196.13,101.64a6.59,6.59,0,0,1,.89-.51c14.22-6.48,1.43-7.84-5-12.41-1.21-.86-3.77-4.18-6.4-2.34C177.38,92.16,189.46,105.86,196.13,101.64Zm48-6.63c12.35,2.51,20-.31,13.9-4-2.15-1.31,0,0-3.22-3C248.73,82.28,227.16,94.05,244.1,95Zm-.75,58.81c.38,3.18-.08,12.12,4.36,9,4.1-2.86,1.23-27.3-.66-28.32C239.81,130.63,242.72,148.5,243.35,153.82Z"/></svg>
