<svg id="Layer_1" data-name="Layer 1" xmlns="http://www.w3.org/2000/svg" viewBox="0 0 441.82 350.59"><defs><style>.cls-1{fill:#f2d4c9;}.cls-2{fill:none;}.cls-3{fill:#565656;}</style></defs><circle class="cls-1" cx="220.91" cy="175.39" r="131.04"/><path class="cls-2" d="M242.29,162.9a3.51,3.51,0,0,0,0,1c0-.23.05-.47.09-.71A1.33,1.33,0,0,1,242.29,162.9Z"/><path class="cls-2" d="M255.4,93.7c.44-8.93-7-.7-8.59,3.64-2,5.45-4.59,14.45-5.11,20.5-.32,3.29-7.4,19.17-6.66,22.31C238.42,143.32,258,106.64,255.4,93.7Z"/><path class="cls-2" d="M257.81,157.49c5.62-5.32,12-13.4,12-21-.48,7.28-6.59,14.91-12,20-4.28,4.05-15.84,21.6-15.77,10.24C241.35,180,253.41,161.65,257.81,157.49Z"/><path class="cls-3" d="M258.45,218.43c12.26-7.76,31.19-23.17,24.52-39.09-.92-2.52-3.93-3-6.37-1.14-7.75,3.86-16.22,7.11-21.56,14.33-2,3.64-5.09,6.53-6.19,10.64-2.23,4.59-4.69-3.57-5.14-5.43-7.28-23.46-5.71-13.54,8.3-29.23,5.67-6.54,13.14-11.47,15.94-20,3.22-7.44,7.64-12.89,3.87-20.94-10.12-9.78-33,24.75-35.3,33.4-1.47,9.18-1.19,4-3,.92-2.48-4.25-3.68-8.64-.34-12.09,1.4-5.86,5.24-7.68,8.17-12.39,7.44-10,11.95-21.85,15.16-33.84-.11-5.33,3.8-17.8-2.5-19-5.42-.06-8.79,5.74-11,10-2.54,5.87-3.07,10.76-3.62,16.52-2,9-5.7,17.5-7.69,26.46-.19,1-.42,2.37-1.51,2.76-3.23-.61-2.93-10.85-4.21-13.91-1.43-3.47-.79-6.39-1.49-9.94-7.07-8.54,10.2-19.87,15-28,2.86-6.91,10.38-16.81,6.39-24C235.16,53.82,221,82.6,217.51,91.82c-1.13-2.91-2.75-5.22-3.85-8.09-1.76-3,2.58-7.62,3.26-10.64,4.55-12.33,8.37-25.41,6.91-38.71-.39-2.89-5-2.79-6.28-.65-2.06,2.93-5.12,5-6.74,8.23-1.7,5.25-1.47,16-4.87,18-3.22-11.16-4.44-24.28-10.37-34.83-12.78-20.06-34.29-1.25-14.75,23.52a27.37,27.37,0,0,0,1.74,2.6c6.9,6.92,34.32,27.78,16.47,23.2-9.12-2.34-25.17-7.62-28.15,5.51-1.92,3.43-4.32,11.36,1.43,11.16,12-.4,12-3.31,28.84-2.8,12.87.39,11.87,1.42,14,11.54a1.64,1.64,0,0,1-2.68,1.58C194.19,85.41,180,111.3,193.87,115.9A59.77,59.77,0,0,1,217.14,121c5.3,3.13,4.37,11.2,6.58,16.45,2,6.73-.75,8.56-6.88,5.58-5.14-4-35.21-24.47-35.75-10,2.34,5,5.2,7.94,9.66,8.92,11.24,3.45,21.11,8.66,32.7,11.31,5,.24,10.14,13.86,1.68,8.79-5.53-.51-28.12-12.91-22.7,1.27,8.71,7.39,17.7,16.95,29.68,17.61,2.64.08,3.86.93,4.34,3.52,0,3.28,6.25,16.81,3.39,17.92-4.7-3.5-23.72-23.45-27.12-10.52-.11,4.71-.21,9,4.29,12.84,8.55,7.18,20.11,10.8,28.23,17.91,2,4.09-.45,11.29.41,16.07-2.35,29.08-6-1.42-12.54-8.16-11.34-11.75-17.42-13-30.63-18.08-3.87-1.5-5.27-5.18-10.31-4.63-2.1.23-1.86,1.89-1.23,4.14,3.45,12.32,8.95,17.41,16.05,22.81,6.14,4.67,12.67,4.57,19,8.82,4.37,2.95,9.25,3.9,12.31,8.15,2,3,6.07,7.22,6.47,12C243,281.46,238.2,299,233.08,316.09c-1.14,3.83-7.44,10.62-3.83,13.76,6.64,3.63,10.37-24.4,12.86-28.93,3.45-8.85,4.32-17.56,5.77-26.91-3.38-14.86,22.76-27.12,13.24-42.35-3.45-5.17-9.75,9.1-12.26,8.09-1.94-2.79,1-10.91.77-14.2C249.26,219.34,254.49,219.1,258.45,218.43Zm-7.92-7.65c.56-8.93,8.18-18.82,17.21-24.05,10-5.77,11.43-11.43,13-.59C282.81,195.9,250.84,227.14,250.53,210.78Zm-9.43-44.15c-3.37-8.29,28.14-52.39,27.74-30.25,0,7.58-6.38,15.67-12,21C252.45,161.53,240.38,179.91,241.1,166.63Zm-.37-48.91c.52-6.06,3.12-15.06,5.11-20.51,1.59-4.34,9-12.56,8.6-3.64,2.63,12.94-17,49.62-20.37,46.46C233.33,136.88,240.41,121,240.73,117.72ZM202.62,60.77c.35,3.06-4.24,2.43-5.66.69-8.26-8.13-21.37-20.64-21.52-33.38-.11-9.21,11.3-11,16.23-4.37C198,31.12,201.85,50.64,202.62,60.77Zm-7.18,24.47c-3.14.46-7.78-1.37-12.41.37-2.9,2-14.92,6.71-11.51-1.26.3-.7,1.27-3.65,1.31-3.77C175.68,64,222.88,83.48,195.44,85.24Zm13.68-20.17c-.09-4.22,3-13.6,3-18.69-.18-5.15,9.54-18.61,10-5.46.86,1.2-3.26,28.77-9.68,34.13C211.32,74.48,209,67.09,209.12,65.07Zm7.44,49.4c-.37,1.6-2.85,1.6-5.53,1-4-1-12.13-.91-16.59-2.47-8.65-3.14-1.33-14.93,5.74-13.66C206,99.17,218.59,107.9,216.56,114.47Zm-31.07,17.22c3.58-3.66,29.17,12.92,34.14,16.23a.47.47,0,0,1-.31.85C212.78,148.12,180.46,136.85,185.49,131.69ZM223.24,102c-1.7,1-3.18-3-3.84-5.17-.28-1.79,2.11-6,2-7,3-7.32,12.81-30.5,22.92-23.17C245.76,75.65,235,92.43,223.24,102Zm6.15,74.23c-3.15.81-11-3.08-15.19-6.55-4.87-3.95-7.86-5-9.47-8.67-3.68-4.49,22,2.2,26.54,10C231.68,172.35,233.05,175.81,229.39,176.25Zm9.23,37.94c-7.85-4.07-26.69-10.84-23.22-21.27C217.7,182.17,252.68,215.83,238.62,214.19Zm-4.36,28.06c-5.28.9-13.91-5.84-19.83-7.45-4.26-1.43-23.11-14.83-18.41-22.38C201.78,213.62,237.65,226.38,234.26,242.25Zm14.64,8.31c.86-6.54,8-21,11.4-14.29C262.65,242.33,248.05,266.72,248.9,250.56Z"/></svg>
