<svg id="Layer_1" data-name="Layer 1" xmlns="http://www.w3.org/2000/svg" viewBox="0 0 441.82 352.58"><defs><style>.cls-1{fill:#f2d4c9;}.cls-2{fill:none;}.cls-3{fill:#565656;}</style></defs><circle class="cls-1" cx="220.91" cy="177.27" r="131.04"/><path class="cls-2" d="M244,72.79c-3.25-2.67-7-10.29-11.71-6.26a3.63,3.63,0,0,1-3.29,1c-3.1-.78-5.81.88-8.64,1.8-7.73,3-9.52-4.41-19.88-1.65-11.73.42-1.59,12.65,4.54,13.86a130.15,130.15,0,0,0,21.75,4.86C231.52,86.66,247.33,78.29,244,72.79Z"/><path class="cls-2" d="M202.41,58.22c.83-2.2-1.29-3.33-2.89-4.22-2.5-2.15,0-4.76,2.52-5.18,2.14-1.47-.45-4.81-.69-6.85-1.7-3.51-2.34-9.33-7.41-9-9.49.18-2.93,9-9,12.74-1.36,1.13-3.46,2.09-3.88,3.93-.14,3.2-3.76,3.55-4.75,6.22-1.23,3.09,3.38,2.92,4.9,4.35,2.48,1.93,5.47,2.86,8.12,4.44,3.88,2.71,6-2.51,9.42-2.47C201,62.61,201.77,59.91,202.41,58.22Z"/><path class="cls-2" d="M283.78,110.06c4.43,0,16.36-6.18,13-11.63a4.2,4.2,0,0,0-2.45-1.61,1.62,1.62,0,0,0-1.35.27l-9.72,7.28c-.94.59-3.65,3.69-3.49,4.38C280.11,110.39,283.62,110.06,283.78,110.06Z"/><path class="cls-2" d="M137.21,146.22c-3,1.38,1.9,5.78,2.49,7.81,4.21,8.16,13.89,8.39,22.14,9.15C175.84,164.85,139.66,144.59,137.21,146.22Z"/><path class="cls-2" d="M208.58,52.54c5.83.18,3.52-6.88,4.24-10.52,1.68-4.44,4.35-.33,4.11,2.66,1.16.21,2.8-.68,3.37.6s.89,2.6,1.91,3.51c1.87-.85,2.08-2.68,3.56-3.8,4-2.4.93,9.72,7.8,5a3.73,3.73,0,0,1,2.52-1.48c3-.63,3.47-4.47,5.83-6.15,3-3.1-5.61-10.87-9-10.69-4.51-1.45-9.39,2.29-13.41-.75-2.6-1.9-5.88-5.05-9.27-3.37-2.23,2-6.61,3.59-5.8,7.24C205.92,41,211,45.84,208.58,52.54Z"/><path class="cls-2" d="M248.33,55.51c-2.37,2.39-3.73,5.45-5.93,8a1.68,1.68,0,0,0,.27,2.81c5.28,3.27,13.32,4.83,18.55.77,4.18-4.73,11.44-12.76,4.43-18.23-1.73-1.72-4-2.62-6.28-1.63-5.43,2.78-16.22-2.32-17.67,5.91C242.54,56,247.15,51.92,248.33,55.51Z"/><path class="cls-2" d="M184.11,150.45c-.74,4.18-2.41,16.41,3.09,17.82,2.59-3.77-1.56-15.21-2.71-17.87A.2.2,0,0,0,184.11,150.45Z"/><path class="cls-2" d="M251.67,104.54c-.14-2.73-2.58-.53-4.19,1.21-.74.79-4.43,17.53-4.4,20.89,0,1.26,2.64-3.41,3.22-4.53C248,118.92,251.76,106.16,251.67,104.54Z"/><path class="cls-2" d="M193.24,208c-3.59-2.91-19.83-17.34-25.9-17.36a1.06,1.06,0,0,0-1,1.49c2.54,5.84,21.88,18,26.05,18.33,1,.64.61,0,2-.26A1.85,1.85,0,0,0,193.24,208Z"/><path class="cls-3" d="M266,122.34c6.19-5.24,15.9-9.66,24.81-11.88,5-1.25,18.49-13.71,10.7-17.48-14.17-3.66-21.28,12.08-29.94,20.11-7.81,5-15.71,10.33-23.83,14.64-1.17-4.54,4.25-9,4.35-13.85.26-4,2.45-7.31,3.9-10.94.62-7-5.73-2.87-8.86-1-5.86,4.81-3.4,14.76-6.77,21.22A221.69,221.69,0,0,1,226,160.91c-1.87,1.93-10.88,24.46-13,16.92-11.22-37.27,6.31-52.13,7.69-83.87-1.4-5.92,12.38-.1,16.6-5.8,5.23-3.49,10-7.61,15.07-11.28,1.23-1.69,3.5-1.86,5.39-2.3,5.46-.61,8.39-5.06,11.14-9.23,6.5-7.36,5.32-16.51-2.3-22.48-4.26-4.07-9.94.72-15,.11-1.76,0-2.05-2-2.51-3.33a5.44,5.44,0,0,0-2-2.95c-4.44-3.88-7-10-13.7-10.36-2.87-.38-5.7-1-8.65-.42-5.84,1.74-9.08-8-14.83-4.29-11.38,10.85-23.6,2.88-25.41,10.76-.22,6.56-1,9.7-7.17,12.8a21.3,21.3,0,0,0-6.45,12.27c-1.69,7.76,9.59,7,13.64,11.44,10.1,4.73,7.25,8.76,14.27,14.28,10.72,8.79,18,.59,17.62,15.18-1,16.72-10.45,31.71-11.14,48.58-.63,12.67,2.64,25,4.4,37.45,0,15.21.34,31.89-5.15,46.24-2.45-.39-2.06-10.61-2.35-12.29.07-3.61-1.65-6.1-1.82-9.49a73,73,0,0,0-6-21c-3.79-9.31-3.49-11.58-3-21.58a78.89,78.89,0,0,0-5.45-21.68c-6.17-6.07-7.17,7.56-6.54,11.52,0,3.18,2,6.69,1.06,9.68-.43.46-1.38.22-2.41-.64a129.5,129.5,0,0,0-14.22-11c-9.57-8.57-22.38-10.92-33.35-16.7-2-1.93-5.69-1.39-5.76,1.83,2.3,5.94,8.21,10.37,11.21,16.15,6.08,13.45,21.1,10.92,33,14,3.84,1.33,7,4.33,10.88,5.67,4.8,1.88,5,7.65,8.16,11.1,1.76,2,11.34,19.92,3.42,15.7-4.76-3.1-10-5.58-14.08-9.61-5.85-4.94-9.25-10.31-16.43-3.59-6.65,6.39,9.17,10.09,12.59,13.93,4.71,3.08,7.8,7.81,13.38,9.69,4,1.7,10.43,6.33,11.59,10.52,0,14.47,8.3,14.48,5.38,27.87-1.91,8.3-.75,16.77-1.75,25.08a84.71,84.71,0,0,0,3.14,39.35c1.7,5.1,6.18,19.61,11.7,20.65,5.64.09-6.38-14.76-6.4-18.51-1.42-4.69-3.34-9.29-3.86-14.17-2.3-11.37-.36-22.72.22-34.11.63-14.83.79-30,3.9-44.49,3.37-12.65,1.12-26.57,5.38-38.81,2.84-4.71,5.67-9.43,8.6-14.08A90.69,90.69,0,0,0,232.92,155c.66-3,2.65-4.8,4.34-7,3-3.87,5.66-.28,8.37.61,10.5,1.18,23.24.72,33.16-2.29,3.63-2.15,20.92-.71,15.21-8.86-5.14-2.53-11,1.15-16.45.91-9.64.69-16.9,6.87-27,5.4C228.9,144,260.52,124.4,266,122.34Zm17.38-18.13,9.73-7.28c.38-.28.87-.16,1.34-.27a2.78,2.78,0,0,1,2.89,1c3,5.71-9.13,10.35-13,12.47-.59.32-7.9,3.68-8.28,2C275.88,111.43,282.44,104.8,283.38,104.21ZM259.54,47c2.26-1,4.55-.09,6.27,1.63,7,5.47-.25,13.5-4.42,18.23-5.23,4.06-13.28,2.5-18.55-.77a1.67,1.67,0,0,1-.27-2.81c2.19-2.51,3.56-5.57,5.92-8-1.18-3.59-5.78.44-6.62-2.41C243.31,44.71,254.1,49.81,259.54,47ZM210.36,27.4c3.4-1.68,6.67,1.47,9.28,3.37,4,3,8.9-.7,13.41.75,3.43-.18,12,7.59,9,10.69-2.35,1.68-2.85,5.52-5.83,6.15a3.71,3.71,0,0,0-2.51,1.48c-6.87,4.71-3.84-7.41-7.81-5-1.47,1.12-1.68,3-3.55,3.8-1-.91-1.37-2.26-1.92-3.51s-2.21-.39-3.37-.6c.24-3-2.42-7.1-4.11-2.66-.72,3.64,1.6,10.7-4.24,10.52,2.45-6.7-2.66-11.56-4.18-17.74C203.76,31,208.13,29.42,210.36,27.4Zm-20.9,37.12c-2.65-1.58-5.64-2.51-8.13-4.44-1.52-1.43-6.13-1.26-4.89-4.35,1-2.67,4.6-3,4.75-6.22.41-1.84,2.51-2.8,3.88-3.93,6.11-3.76-.46-12.56,9-12.74,5.07-.36,5.72,5.46,7.41,9,.25,2,2.84,5.38.69,6.85-2.49.42-5,3-2.51,5.18,1.6.89,3.72,2,2.89,4.22-.64,1.69-1.37,4.39-3.7,4C195.49,62,193.34,67.23,189.46,64.52Zm15.68,16.84c-6.13-1.21-16.27-13.44-4.55-13.86,10.37-2.76,12.16,4.61,19.88,1.65,2.83-.92,5.55-2.58,8.64-1.8a3.63,3.63,0,0,0,3.29-1c4.76-4,8.46,3.59,11.72,6.26,3.37,5.5-12.43,13.87-17.24,13.59A130.26,130.26,0,0,1,205.14,81.36ZM162,163c-8.25-.76-17.94-1-22.14-9.15-.59-2-5.47-6.43-2.5-7.81C139.82,144.43,176,164.69,162,163Zm25.36,5.09c-5.5-1.41-3.84-13.65-3.09-17.83a.2.2,0,0,1,.38,0C185.8,152.9,190,164.34,187.37,168.11Zm7.18,41.95c-1.37.24-1,.9-2,.25-4.18-.33-23.52-12.48-26-18.32a1.06,1.06,0,0,1,1-1.5c6.07,0,22.31,14.46,25.9,17.37A1.85,1.85,0,0,1,194.55,210.06Zm96.25-69.64c-.38,1.32-16.43,4.25-19.22,5-2.12.58-10.28,1.27-12.9,1.37-.4,0-1.51-.05-1.16-.26C264.81,142.31,291.29,138.68,290.8,140.42Zm-47.55-13.94c0-3.36,3.66-20.1,4.4-20.89,1.61-1.74,4-3.94,4.18-1.21.09,1.62-3.69,14.38-5.36,17.57C245.88,123.07,243.26,127.74,243.25,126.48Z"/></svg>
