<svg id="Layer_1" data-name="Layer 1" xmlns="http://www.w3.org/2000/svg" viewBox="0 0 441.82 350.59"><defs><style>.cls-1{fill:#f2d4c9;}.cls-2{fill:#565656;}</style></defs><circle class="cls-1" cx="220.91" cy="175.39" r="131.04"/><path class="cls-2" d="M158.15,158.55a1.63,1.63,0,0,0,3-.39c1.91-7.27,1.54-22.6-3.82-23.85-3-.69-3-2-3.2-3.39-.54-3.52,2.83-7,6.57-7.22a3.2,3.2,0,0,1,1.95.61,13.2,13.2,0,0,1,1.5,1.18,5.3,5.3,0,0,1,1.53,5c-2.48,11.3,2.59,24.35-2.74,35.36a2.45,2.45,0,0,0-.09,2c1.52,3.77,4.76,6.78,6.48,10.48a13.61,13.61,0,0,0,3.74,7.31c13.57,13.91,26.94,29.71,45.09,37.56a2.42,2.42,0,0,0,2-.09,9.08,9.08,0,0,1,1.93-.69,2.39,2.39,0,0,0,1.76-1.75c10.57-41.17,2.18-66.32-21.35-100a2.38,2.38,0,0,0-2.63-.93c-3.34,1-5.45-3.22-6.05-6.38a2.13,2.13,0,0,1,0-.94c1.23-4.53,8.42-8.56,11.06-3.34a5.54,5.54,0,0,1-.15,4.21,2.65,2.65,0,0,0-.15.57c-.41,3.81,2.46,7,4.9,10a2.38,2.38,0,0,0,3.88-.21c3.41-5.55,3.11-13.55,4.15-20.16a2.47,2.47,0,0,0-1.63-2.66,3.17,3.17,0,0,1-2.46-2.56c-.56-2.73-.85-2.58,1-4.24,3.79-3.36,11.05-5.86,12.42-.22a3.54,3.54,0,0,1-.9,3.28c-8,8.42-5.1,22.33-10.69,32.44a2.38,2.38,0,0,0-.19,1.95,119.29,119.29,0,0,0,7,14.6,2.36,2.36,0,0,0,3.91.3c16.58-21.17,29.72-62.88,15.45-86.93a1.64,1.64,0,0,0-.14-.22c-3.58-5.11-9.11-8.51-12.36-13.94-1.87-2.13-3.78-6-7-5a2.27,2.27,0,0,1-.89.13c-7.94-.72-2.82-10.67,3.12-11,4.51-.68,6.54,2.56,4.59,6.07a2.45,2.45,0,0,0-.05,2.44c3.4,5.78,8.23,10.82,12.9,15.68a2.39,2.39,0,0,0,4.1-1.48c.44-5.37,2-10.7,1.3-16a2.34,2.34,0,0,0-2.24-2c-2.12-.11-4.09-1.14-4.59-3.42a2,2,0,0,1,0-.69c.45-4.71,8.65-8.45,13.1-6.94a2.3,2.3,0,0,1,1.29,1.12c1.13,2.25-.42,4.74-2.15,6.57a2.34,2.34,0,0,0-.61,1.07c-1.85,7.12-1.34,15.31-2.35,22.79-1.08,8.68,5.24-2.57,8.07-4.5a2.8,2.8,0,0,0,.6-.59,74.88,74.88,0,0,0,10.57-19.53,2.37,2.37,0,0,0-1-3A4.61,4.61,0,0,1,265,24a2.38,2.38,0,0,1,.76-2.26,12.08,12.08,0,0,1,10.14-2.87,2.77,2.77,0,0,1,1.06,5,22.59,22.59,0,0,0-2.63,3.26,1.51,1.51,0,0,0-.18.26c-2.35,3.91-3.81,8.46-5.7,12.66-4.54,9.32-12.07,16.65-18.65,24.52a2.38,2.38,0,0,0-.47,2.09c7.07,29.64-5.18,58.86-20.55,83.7-3.88,4.37-.35,9.88.55,14.75A97.68,97.68,0,0,1,232,186.65c-.07,12-2.23,23.68-4.37,35.41a1.55,1.55,0,0,1,0,.21c-2.47,9.41-6.69,18.57-9.77,27.74a2.39,2.39,0,0,0,3.43,2.86c14.33-8.22,25.25-22.45,33.17-37a2.38,2.38,0,0,0-.86-3.15c-7.37-4.46-9.5-14.57-11-22.8a2.42,2.42,0,0,0-1.67-1.86c-8.3-2.7-3-13.65,4.6-11.15l.16.07c4.41,2.31-.32,7.05.77,10.53a.47.47,0,0,1,0,.17c.14,7.79,2.65,15.49,8.11,21.07a2.4,2.4,0,0,0,3.91-.7c1.68-3.78,2.79-7.72,4.51-11.6,1.28-2.9.87-6.15.83-9.34a2.44,2.44,0,0,0-1.85-2.36,4.61,4.61,0,0,1-1.21-.46,2.3,2.3,0,0,1-1.21-1.81c-.37-4.55,4.49-10.34,8.77-8.51,2.61,1.11,5.31,5.45,3.08,7.5-1,.9-3.16,8.75-5,15a2.39,2.39,0,0,0,4.24,2c3-4.43,4.24-10.48,5.95-15.47a2.46,2.46,0,0,0-.25-2.14c-2.54-3.88-2.54-5.15,1.82-7.9a2.78,2.78,0,0,1,.42-.22,3.82,3.82,0,0,1,5.15,2.83,6.77,6.77,0,0,1-1.55,6.58c-2.95,3.71-3.55,8.83-5.39,13.17l-.08.18c-2.59,5.22-6.75,12.28-13,13.08a2.41,2.41,0,0,0-1.88,1.3c-8.72,17.69-20.22,35-36.94,46a3.17,3.17,0,0,1-.41.21c-3.4,1.39-6.36,3.87-9.56,5.18a6.65,6.65,0,0,0-2.78,2.44c-4.5,9.7-9.61,19.58-11.38,30.19,0,.13,0,.26,0,.39-.31,11.82,4,25.73,14.16,31.68a3.27,3.27,0,0,0,1.15.39c3.11.56,3.61,1,3.87,3.41a1.15,1.15,0,0,1-.15.73c-2.94,5.11-11-3.77-11.1-3.84-5.59-5.33-8.31-12.11-10.83-19.24,0-.08,0-.15-.07-.22-6.5-23.68,17-52.38,23-76.84a2.4,2.4,0,0,0-1.49-2.85c-20.2-7.21-35-25.42-49.82-40.34-4.68-4.87-5.79-13.77-11.82-17.14a2.45,2.45,0,0,0-2-.16,36,36,0,0,1-32.67-4.9,2.32,2.32,0,0,0-2.5-.16c-3.42,1.93-5.4.38-5.52-4.35-.07-2.46.4-3.78,2.16-5,8.3-7.22,6.38,9.1,13.57,9.64,7.24,2.87,15.54,4,22.79.86a2.4,2.4,0,0,0,1.2-3.28l-7.22-14.27a2.38,2.38,0,0,0-2.59-1.25,5.7,5.7,0,0,1-5.78-1.85c-3.07-4.73,3.85-10.6,8.82-10,3.83.69,1.29,6.17,2,9a1.78,1.78,0,0,0,.18.43Z"/></svg>
