<svg id="Layer_1" data-name="Layer 1" xmlns="http://www.w3.org/2000/svg" viewBox="0 0 441.82 352.58"><defs><style>.cls-1{fill:#f2d4c9;}.cls-2{fill:#565656;}.cls-3{fill:#fff;}</style></defs><circle class="cls-1" cx="220.91" cy="177.27" r="131.04"/><path class="cls-2" d="M267.64,196c1,.06,1.24,1,1.09,1.9a21.06,21.06,0,0,1-.87,3.79c-.75,2.1-1.7,4.12-2.51,6.2-.58,1.48-1,3-1.61,4.49-1.16,2.55-2.48,5-3.7,7.55a45,45,0,0,1-2.13,4.61,80.7,80.7,0,0,1-5.39,7.89c-2.37,3-5,5.78-7.57,8.53a72.38,72.38,0,0,1-5.9,5.45c-2.24,1.89-4.59,3.63-6.9,5.43a2.6,2.6,0,0,1-.88.44c-2.35.65-2.7,1.09-3,3.4s-.94,4.86-1.06,7.3c-.24,4.86-1.92,9.42-2.69,14.17-.92,5.69-2.6,11.25-3.69,16.92-1.31,6.82-2.4,13.68-3.46,20.53-.51,3.26-.79,6.55-1.06,9.83-.17,2.07-.05,4.16-.22,6.23a4.25,4.25,0,0,1-1,2.07,1.44,1.44,0,0,1-1.31.33c-.28-.11-.47-.79-.47-1.21a34.74,34.74,0,0,1,.23-3.95c.39-3.26.8-6.51,1.28-9.75.93-6.14,1.81-12.29,2.9-18.39,1.2-6.65,2.73-13.24,4.1-19.86.18-.86.63-2.23.87-3.08.08-.28,0-.61-.27-.55a15.86,15.86,0,0,1-3.06-1.93,37.3,37.3,0,0,1-2.87-3.79c-1.39-1.8-2.73-3.64-4.22-5.35a26.89,26.89,0,0,1-5.19-10c-1.73-5.45-3.2-11-4.57-16.55-.66-2.68-.72-5.5-1.26-8.21l.34-3.61a1.05,1.05,0,0,1,2-.29,10.43,10.43,0,0,0,.84,1.67c2.18,3.48,3.69,7.24,5.59,10.83,2,3.76,4.35,7.3,6.55,10.94,1.19,2,2,4.42,3.41,6.17a1.77,1.77,0,0,1,.26.41,26.13,26.13,0,0,0,3.85,6.43c.23.28.44.59.86,1.16l1-6.54c.13-.81.29-1.62.44-2.42,0-.1.07-.21.08-.28.49-3.19,1.13-5.27,1.14-8.05s.75-5.56,1.13-8.34.74-5.69,1.05-8.54c.69-6.1,1.34-12.2,2-18.3a22.71,22.71,0,0,0,.19-3.18c0-.45-.43-.89-.7-1.31s-.47-.54-.67-.84c-.43-.65-.67-1.58-1.26-1.94A71.4,71.4,0,0,1,220,197a19.49,19.49,0,0,1-6.28-10,12.1,12.1,0,0,1,.3-7.38c.33-.93.9-1.14,1.89-1.07a7.94,7.94,0,0,1,4.56,2.1c1.58,1.27,3.45,3.4,5.07,4.84.32-1,.32-2.72.54-3.57a3,3,0,0,1,5.35-1.09l1,1.33c-.34-5.82-.59-11.52-1-17.21-.35-4.58-.91-9.14-1.36-13.71-.08-.83-.4-1.11-1.28-1.37a33.13,33.13,0,0,1-10.91-5,46,46,0,0,1-8.91-8.44c-2-2.59-2.36-5.92-.58-8.23a2.77,2.77,0,0,1,3.59-.76c3.15,1.63,5.41,4.21,7.62,6.88.74.88,1.71,1.57,2.45,2.46.94,1.12,1.7,2.4,2.64,3.52s1.91,2,3,3.15c-.27-4.61-.46-8.89-1.76-13.11-2-6.35-3.54-12.81-5.29-19.22,0-.13-.17-.23-.33-.43-1.83,2-3.82.44-5.76.25a13.16,13.16,0,0,1-2.92-.79,21,21,0,0,1-9.24-6.5c-.34-.4-.86-.69-1.1-1.14-.35-.67-.93-1.66-.68-2.1a3.89,3.89,0,0,1,2.21-1.76c3.3-.8,5.77.8,7.87,3.17a6.8,6.8,0,0,0,1.61,1.33c-.2-3,0-5.68,2.35-7.76-3.37-8.77-8.79-16.45-13-24.69a48,48,0,0,1-6.22,2.6,51.49,51.49,0,0,1-7.24,1,14.84,14.84,0,0,1-9.73-2.24c-3-1.9-3.18-5.39-.33-7,1.29-.73,2.95-.79,4.41-1.25a11.14,11.14,0,0,1,6,.12,18,18,0,0,0,2.21.18c-.68-1.07-1.24-1.87-1.7-2.72a7.22,7.22,0,0,1-1.08-2.5c-.24-2.62,1.66-3.88,4.2-2.86a31.13,31.13,0,0,1,3.06,1.68c-.67-1.53-1.35-2.9-1.89-4.32-1.22-3.22-2.37-6.48-3.58-9.71a1.26,1.26,0,0,0-.76-.71c-4.58-.95-8.08-3.76-11.67-6.5a10.8,10.8,0,0,1-4.1-5.28c-.52-1.63-.21-3.06,1.16-3.8a4.67,4.67,0,0,1,3.5-.34,23.39,23.39,0,0,1,10,7.32,8.81,8.81,0,0,0,.9.86,21.67,21.67,0,0,1,.55-3A12.2,12.2,0,0,1,191,28.42a37.5,37.5,0,0,1,4.7-4.73c1.18-1,2.23-.59,2.46.91a7.1,7.1,0,0,1,0,2.87c-.92,3.07-1.74,6.11-4.22,8.56a7.29,7.29,0,0,0-1.85,8.13c1.13,2.94,2.25,5.89,3.42,8.81.76,1.88,1.59,3.72,2.38,5.54a61.72,61.72,0,0,1,3.35-5.2,45.26,45.26,0,0,1,4.78-5.2,6.34,6.34,0,0,1,5-2,2.4,2.4,0,0,1,2.14,3.12c-.75,2.55-1.58,5.07-2.46,7.57a13.59,13.59,0,0,1-1.23,1.79c-1.13,2-2.19,4.09-3.35,6.1-.8,1.41-1.77,2.73-2.56,4.14a1.64,1.64,0,0,0,0,1.42c2.28,4.08,4.67,8.1,6.93,12.2,1.29,2.35,2.41,4.81,3.59,7.24,1.51,3.11,3,6.24,4.59,9.5a4,4,0,0,0,.82-1.18c.83-3.15,3-5.48,4.93-7.91a42.08,42.08,0,0,1,4.42-4.54,3.75,3.75,0,0,1,4.1-.2,3.35,3.35,0,0,1,.39,3.92c-1.07,2.16-2.13,4.33-3.3,6.43q-2.38,4.24-4.93,8.41c-.8,1.31-1.85,2.47-2.58,3.81a3.54,3.54,0,0,0-.36,2.42c1.39,5,3,9.94,4.37,14.93.72,2.51,1.27,5.06,1.91,7.59a8.6,8.6,0,0,0,.49,1c.59-1.42,1.1-2.6,1.45-3.71a5.79,5.79,0,0,1,1.73-2.51,10.76,10.76,0,0,1,2-1.23c1.45,1,2.2,3.81,1.59,6,.18.1,3.24-3.75,4.4-5,2-2.15,3.92-4.22,6.7-5.43a7.48,7.48,0,0,1,5.27-.38,1.92,1.92,0,0,1,1.25,2.35,11.1,11.1,0,0,1-3.09,6.24c-2.35,2.5-4.7,5-7.24,7.32-2.21,2-4.73,3.68-7,5.57a35.85,35.85,0,0,0-3.93,3.66,3,3,0,0,0-.43,2c.64,7.16,1.43,14.3,2,21.47.37,4.68.41,9.38.6,14.07a3.52,3.52,0,0,0,.28.74c1.51-2.43,2.91-4.68,4.29-6.93s3-4.52,5.67-5.58a2.51,2.51,0,0,1,3.65,2.5,28.59,28.59,0,0,1-1.35,6.37,23.73,23.73,0,0,1-2.1,4.26c-1.25,2.21-2.57,4.38-4,6.78a5.31,5.31,0,0,0,1.48-.6c1.91-1.55,4.13-1,6.23-.91,1.07,0,1.9,2.18,1.34,3.23a6.83,6.83,0,0,1-1.35,1.87c-1.64,1.43-3.32,2.83-5.09,4.09a5.69,5.69,0,0,1-2.52.82,8.7,8.7,0,0,0-6.09,3.18c-.62.79-.61,2.15-.69,3.26-.24,3.17-.26,6.37-.59,9.53-.52,5-1.22,10-1.83,15-.2,1.67-1,7.49-1,9.23.83-2.37,2.4-8.86,3.18-11.25a24.6,24.6,0,0,1,8.23-12.28c3.24-2.53,6.31-5.26,9.49-7.86,1.61-1.31,3.34-2.49,5-3.78q4.13-3.22,8.17-6.54Zm-2.39,6.65-.16-.18c-.22.16-.44.34-.67.5-1.65,1.08-3.37,2.07-4.94,3.25-1.24.93-2.26,2.13-3.45,3.12-4,3.31-7.88,6.68-12,9.82A22.75,22.75,0,0,0,236,230.08c-1.47,4.37-2.8,8.81-4,13.27a43.32,43.32,0,0,0-1.6,6c.11.08.68-.15,1.09-.28a3.44,3.44,0,0,0,1.09-.57c1.59-1.24,3.22-2.43,4.69-3.8,2.79-2.59,5.56-5.24,8.14-8.05a84.26,84.26,0,0,0,8.29-9.85,102.32,102.32,0,0,0,6.8-12.59c1.42-2.93,2.37-6.09,3.56-9.13C264.4,204.27,264.86,203.46,265.25,202.64Zm-60.86,29.48-.4.18c0,.28-.42.8-.36,1.08,1.13,5.52,2.72,10.81,4,16.3a31.09,31.09,0,0,0,2,5.47,44.93,44.93,0,0,0,3.38,7.06c2.08,3.19,4.63,6.06,6.82,9.19a5.55,5.55,0,0,0,3.47,2c.41-1.89.82-3.67,1.16-5.47a1.93,1.93,0,0,0-.22-1.34c-.51-.72-5.14-8.17-5.31-8.45-2.44-4.07-4.93-8.11-7.34-12.19q-2.29-3.88-4.37-7.88C206.14,236.16,205.3,234.12,204.39,232.12Zm25.3-30c-.37-2-.58-3.65-.95-5.22-.52-2.17-1.85-4-2.74-6a14.61,14.61,0,0,0-4.12-6c-1.54-1.2-2.58-3-4.64-3.61-1.11-.33-1.42.07-1.66.91a4.07,4.07,0,0,0-.14,1.15,15.54,15.54,0,0,0,3.69,9.71,44.79,44.79,0,0,0,5.78,5.48C226.32,199.8,227.91,200.82,229.69,202.13Zm21.21-78.45a6.36,6.36,0,0,0-1.77,0c-2.27.77-4.43,1.56-6.08,3.6-2.55,3.15-5.52,6-8.14,9.06a30.26,30.26,0,0,0-3,4.91c-.19.34,0,.89,0,1.36.32,0,.5,0,.6-.08,1.46-1,2.94-2.05,4.34-3.16,1.64-1.29,3.25-2.62,4.81-4a73.08,73.08,0,0,0,6.14-5.79C249.21,128,250.73,126.26,250.9,123.68Zm-16.11,72.91a43.28,43.28,0,0,0,3-3.66c1.9-2.89,3.68-5.86,5.49-8.8a19.21,19.21,0,0,0,2.81-8.49c0-.3-.64-1-.81-.91a4.82,4.82,0,0,0-1.9,1c-3.27,3.13-5.17,7.19-7.28,11.08-.56,1-.53,2.37-1,3.45C234.12,192.29,234.35,194.36,234.79,196.59ZM197.7,69.21c-2.35-1.72-4.69-3-7.56-2.89-.82,0-1.65-.31-2.46-.26a59.37,59.37,0,0,0-7.18.71c-1.8.34-2.11,1.61-.86,3A4.3,4.3,0,0,0,181.86,71a36.39,36.39,0,0,0,7.16.87C192.05,71.79,195.17,71.52,197.7,69.21Zm29.87,77.9.09-.19a32.81,32.81,0,0,1-3-2.77c-1.54-1.82-2.89-3.82-4.41-5.66-1.15-1.39-2.63-2.53-3.62-4a16.63,16.63,0,0,0-5.26-4.56,1.42,1.42,0,0,0-1.31.23c-.77.69-.86,2.64,0,3.77a58.69,58.69,0,0,0,4.41,5.17,31.28,31.28,0,0,0,10.81,7.14C226,146.55,226.8,146.82,227.57,147.11ZM210.75,48.46a6.31,6.31,0,0,0-4.39,2.36A31.13,31.13,0,0,0,201,58.48a7.19,7.19,0,0,0,.84,7.79C205.37,60.6,209.86,55.58,210.75,48.46Zm10.06,57.61c2-3.09,4-5.93,5.78-8.89,1.64-2.73,3.08-5.58,4.56-8.39a5.56,5.56,0,0,0,.36-1.43,4.38,4.38,0,0,0-1.48.2,10,10,0,0,0-4.13,4.2c-1.52,2.89-3.34,5.62-4.87,8.51A6.12,6.12,0,0,0,220.81,106.07ZM187.28,40.22l.35-.42c-.51-1.14-1-2.3-1.54-3.41-1.92-3.71-5.53-5.36-9-7.15-.9-.47-1.59.36-1.41,1.23A4.88,4.88,0,0,0,177,33a57.74,57.74,0,0,0,5.56,4.43C184,38.47,185.69,39.29,187.28,40.22Zm60.25,153.49c-3.21-1.41-11.4,3.3-13.07,7.28.28,0,.58,0,.72-.13,1.71-1.63,3.91-1.87,6.09-2.39C243.94,197.84,245.55,195.59,247.53,193.71ZM232,196c.15,0-.16-3.18,0-3.22,0-3,.15-4.48.05-7.47,0-.41-2.3-3.1-2.74-3.09a1.68,1.68,0,0,0-1,.29c-.87.59-1,2-1.05,3C227.26,188.1,230.84,193.72,232,196ZM203.45,101.1c1.32,2.42,7.22,6.94,9.61,6.49a9.83,9.83,0,0,0-1-1.29c-1.41-1.38-3-2.63-4.27-4.09S205.19,100.85,203.45,101.1Zm-6.61-36.22c-1-2.64-2.27-5.08-5-6.34a4.28,4.28,0,0,0-1.09-.18c-.06.4-.29.89-.14,1.19a15,15,0,0,0,1.41,2.15A8.38,8.38,0,0,0,196.84,64.88Zm-1-38c-2.91,1.67-4.7,5.1-4.16,7.82C194.39,32.83,195.24,30,195.86,26.91Zm35,109.93a11.24,11.24,0,0,0,2.71-6.66C231.71,132,231.11,134.35,230.85,136.84ZM215,100.08a2.43,2.43,0,0,0-.57.37.58.58,0,0,0-.21.44,7.38,7.38,0,0,0,.6,2.55c0,.13,1.36,3.12,2.07,3.16.31,0,.56-1.14.49-1.48a48.39,48.39,0,0,0-1.82-4.83A.43.43,0,0,0,215,100.08Z"/><path class="cls-3" d="M230.5,192.29l-.47.12"/><path class="cls-3" d="M228.34,182.46a1,1,0,0,1,1-.29c.46.27,1.12.74,1.13,1.15"/><path class="cls-3" d="M195.86,26.91c-.62,3.13-1.47,5.92-4.16,7.82"/></svg>
