<svg id="Layer_1" data-name="Layer 1" xmlns="http://www.w3.org/2000/svg" viewBox="0 0 441.82 352.58"><defs><style>.cls-1{fill:#f2d4c9;}.cls-2{fill:#565656;stroke:#4f5c49;stroke-miterlimit:10;}</style></defs><circle class="cls-1" cx="220.91" cy="177.27" r="131.04"/><path class="cls-2" d="M210.61,242.65c.51-21.61,3.47-43.34-.9-64.76a2.22,2.22,0,0,1-.06-.51c-.28-10.88,2.23-10.38-5.51-19.85-2.85-3.54-11.83-21.8-17.23-14.74-9.08,10.5-22.76,15.23-36.18,16.94-4.17.6-7.27-1.29-8.38-5.32-1.29-5.62-5.49-10.33-5.91-16.14-.76-10.86,6.53-14.59,14.83-19.23,9-5.85,19.46-3.87,28.85-.24l.29.09c5.25,1.28,7.45,6,9.3,10.57a1.42,1.42,0,0,0,.08.18c1.19,2.36,3,3.81,4.24,6.49a2,2,0,0,0,.24.55A76.41,76.41,0,0,1,205,152.2l0,0a3.17,3.17,0,0,0,5.51-2.11c0-4.2,1.4-25.26-1.38-29.77-.67-1.08-5.1-14.42-24.22-16.37l-.36,0c-5.12-1.1-12.29-4.16-14.78-8.84-4.64-6.51-10.14-13.06-10.9-21.29a2.75,2.75,0,0,1,.13-1.17c1.73-5,7-11.42,12.91-9.31,8.58,2.85,19.26,6.19,23.23,15,3.2,5.82,1.62,14.1,5.15,19.6.07.1,1.92,4.9,2,5,1.56,3.92,2.41,1.39,5,4.54,1.77,2.13,4.85,2.21,5.47-.49,1.09-4.69,1.65-9.65,4.93-13.36,4.07-5.63,3.05-10.07-1-15.14a2.27,2.27,0,0,1-.18-.25c-6.36-9.89-7-23.52-4.67-34.81a3.32,3.32,0,0,1,.23-.67c4.71-9.74,11.62-25.32,24.54-21.39,15.16,1.94,15.32,20.67,9.77,31.56-4.73,8.75-9.34,18.82-16.2,26.24a19.84,19.84,0,0,0-4.18,6.49c-5.66,11.36-11.34,24.13-11,37.05a2.91,2.91,0,0,0,5.25,1.62c1.84-2.53,3.52-5.1,3.56-5.16,3.14-4.89,10.17-14.35,10.27-14.42C244.89,97,254.4,88.91,266.74,84.41a3.64,3.64,0,0,1,.47-.14c5.64-1.16,10.23,3.4,13.9,7.13,7,6.41,3.18,16.74-3.18,22.09-7.67,6.66-17.23,9.5-26,14.46-9.18,6.06-21.76-.21-30.79,5.47l-.22.16c-1.82,1.53-4.49,2.87-5.06,5.64-2.25,9.74-1.24,20.06-2.46,30-.65,7.82,2,15.38,2.3,23.07a1,1,0,0,0,2,.3v0c.9-3.43,3.68-5.76,5.11-8.89,2.44-3.59,7-5.46,9.41-9.25,4-5.83,27.34-18.09,27.36-18.11,3.6-2.15,7.77-5.26,12.09-5.21,11.26-.2,25.18,5.61,29.7,16.51a3.26,3.26,0,0,1,.15.44c1.46,5.42-2.72,10.6-6.28,14.27-8.28,8.39-18.78,11.13-30.64,10.74-6.51.26-14.21-1.1-19.88-4.32-4.31-2.75-9.5-2.37-13.62-5.32-.29-.21-1,.77-1.35.92-5.06,2.23-8.66,10.1-10.64,15a1.47,1.47,0,0,1-.1.22c-4.27,8-2.87,17.45-4.1,26.3,0,.1,0,.19,0,.28-.09,4.76-.3,20,1.32,29.32a2.94,2.94,0,0,0,5.6.61c6-14,10.8-26.57,24.63-35.94l.08,0c5.07-2.48,9-6.66,16.64-6a1.88,1.88,0,0,1,1.15.52c6.6,6.45,3.66,19.05-3.44,24.06,0,0-8.17,3.87-12.51,3.84-6.82-.27-17.2,4-17.35,4-4.45.48-9.93,15.3-10.2,19.91-.05.89-1,3.94-.84,6.22,2.09,17.78,6.4,35.3,9.5,53,.13,3.17,4.32,5.82,1.58,8.79a2.64,2.64,0,0,1-4.65-1.59c-1.94-8.21-2.78-16.63-4.44-24.89-2.08-8.5-4.53-39.38-9-46.43-.06-.09-1.72-5.59-2.69-8.39-1.21-3.48-7.31-12.46-7.39-12.6-2-3.64-2.3-10.77-7.82-9.7-16.54.27-30.94,10.81-46.42-.64a46.14,46.14,0,0,1-16.23-20.11,2.7,2.7,0,0,0-.3-.52c-2.94-4-4-10-.75-14,.08-.1.17-.19.25-.28,7.43-7.62,24-13.88,34.43-11.32a3.51,3.51,0,0,1,.64.24c13.3,6.52,22.18,25.74,29.46,37.91,0,0,9.45,11.24,12.4,20.79A1,1,0,0,0,210.61,242.65Zm-45-10.53s22.39-3.15,23.78-6.73a6.42,6.42,0,0,0-1.14-3.22c-9.36-5.5-19.77-9.27-30.12-12.4-4.21-1.16-1.39-4.62,2.71-2.91,3.66,1.56,21.06,7.32,25.33,9.58,5.81,3.07.83-5.72-1.94-8.15-.05,0-4.93-7.13-8.17-10a1.07,1.07,0,0,1-.14-.16c-5.76-8.45-16.15-13-25.43-8.22,0,0-11.73,2.61-15.25,7.39-1.57,1.74-1.9,7.6-.93,9.73C139.64,219.09,151.37,232.23,165.66,232.12Zm77.55-60.75c6.13-1.67,20.84-3.93,27.17-5.14,2.54-.19,6.21,0,4.35,1.75-2.9,2.78-6.86,2-10.29,2.87a117.73,117.73,0,0,1-17.31,3c-3.72.44-16.57,4.28-6.43,8.84a.31.31,0,0,1,.1.05c14.11,8.76,34.54,9.78,48-.3,0,0,16.33-11.49,7.66-16.9-.07,0-7.44-12.53-26.27-9.78C262.23,156.93,242.57,169.83,243.21,171.37ZM226.67,76.83c-.14,1,4.06-3.37,4.69-4.17a109.3,109.3,0,0,0,9.48-15.12,67.35,67.35,0,0,0,5.54-15.15c2-10.25-3.18-18.91-14-18.51-.14,0,.21-.48-4.29,2.14-8.1,4.73-14,15-14.21,24.4a39.53,39.53,0,0,0,5.88,24.65c1.22,1.75,3.44,3.35,4,.17,1.36-8.61,4.13-16.93,1.36-25.93a26.28,26.28,0,0,1-.08-4.43c.31-3.34,2.92-3.32,3.11,0C229.14,53.63,227.84,68,226.67,76.83Zm-42.44,49c-1.89-3-11.58-5.68-11.62-5.68-5.56-.65-12.17-2.69-17.3.69-5.31,3.4-11,4.83-14.55,10.41-3.31,4.37,3.62,26.46,9.73,25.31,10-1.61,22.93-5.35,30.73-12.14,2-1.65,5-5.91,2.52-8.6-7.83-4.41-18.13-.79-26.19.85-3.44,1.61-7.75.35-3.6-2.29,9.06-3.86,21.83-1.22,30.45-4.54C185.07,129.58,184.61,126.43,184.23,125.82Zm42.75-.41a1,1,0,0,0,1,1.46c8.9-.18,18.24,1.71,26-3.45,7.3-5.24,17.8-7.07,24.11-13.66.05-.05,6.74-8.35,1.79-14.54-2.78-3.48-7.18-8-11.86-6.7-7.56,1.84-14.43,6.26-20.79,10.59-2.76,1.85-5.42,4.36-8.44,5.86-1.8.33-14,14.17-8.41,12.21,3.95-1.82,30.11-19.35,32.32-13.13.07.22-.49.75-.67.89-4.67,3.74-10.27,2.53-15.18,6C242.47,114,229.39,120.26,227,125.41ZM191.82,88.28c.76.63,3.32,1,3.09,0-1.16-4.74-2.17-9.72-5.91-13-4.61-4-18.16-12.61-22.39-7.94-6.1,6.74-1.28,15,1.6,20.33,3,5.56,10,11.47,16.4,12.72,3.85.84,17.28.33,9.67-6.1-.05,0-15.89-12.38-16.07-13.51C177.36,75.42,187.19,84.5,191.82,88.28Zm42.24,153.86c1.13.36,9-1.13,9.93-1.38,4.36-1.18,10.11-1.72,14.26-3.78,7.63-3.79,7.65-14.42,7.63-14.49-3-9.41-10.12-2.74-14-1.35-8.73,3.17-17.08,14.67-16.09,14.32,1.63-.59,15.51-9.19,16.64-7.62.86,2.28-.83,3-3.12,3.87-3.23,1.21-7.31,2.26-10.17,5.27C238.62,237.56,234.17,241,234.06,242.14Z"/></svg>
